<svg id="visual" viewBox="0 0 960 540" width="960" height="540" xmlns="http://www.w3.org/2000/svg" xmlns:xlink="http://www.w3.org/1999/xlink" version="1.1"><rect x="0" y="0" width="960" height="540" fill="#001220"></rect><path d="M0 296L22.8 305C45.7 314 91.3 332 137 335.3C182.7 338.7 228.3 327.3 274 330.3C319.7 333.3 365.3 350.7 411.2 360.8C457 371 503 374 548.8 367.7C594.7 361.3 640.3 345.7 686 346C731.7 346.3 777.3 362.7 823 365.7C868.7 368.7 914.3 358.3 937.2 353.2L960 348L960 541L937.2 541C914.3 541 868.7 541 823 541C777.3 541 731.7 541 686 541C640.3 541 594.7 541 548.8 541C503 541 457 541 411.2 541C365.3 541 319.7 541 274 541C228.3 541 182.7 541 137 541C91.3 541 45.7 541 22.8 541L0 541Z" fill="#6600ff"></path><path d="M0 401L22.8 392.7C45.7 384.3 91.3 367.7 137 361.2C182.7 354.7 228.3 358.3 274 369C319.7 379.7 365.3 397.3 411.2 400.8C457 404.3 503 393.7 548.8 391.3C594.7 389 640.3 395 686 387.5C731.7 380 777.3 359 823 356.3C868.7 353.7 914.3 369.3 937.2 377.2L960 385L960 541L937.2 541C914.3 541 868.7 541 823 541C777.3 541 731.7 541 686 541C640.3 541 594.7 541 548.8 541C503 541 457 541 411.2 541C365.3 541 319.7 541 274 541C228.3 541 182.7 541 137 541C91.3 541 45.7 541 22.8 541L0 541Z" fill="#175cff"></path><path d="M0 405L22.8 410.7C45.7 416.3 91.3 427.7 137 430.3C182.7 433 228.3 427 274 424.2C319.7 421.3 365.3 421.7 411.2 416.5C457 411.3 503 400.7 548.8 400.7C594.7 400.7 640.3 411.3 686 414.7C731.7 418 777.3 414 823 413.5C868.7 413 914.3 416 937.2 417.5L960 419L960 541L937.2 541C914.3 541 868.7 541 823 541C777.3 541 731.7 541 686 541C640.3 541 594.7 541 548.8 541C503 541 457 541 411.2 541C365.3 541 319.7 541 274 541C228.3 541 182.7 541 137 541C91.3 541 45.7 541 22.8 541L0 541Z" fill="#0082ff"></path><path d="M0 460L22.8 453.7C45.7 447.3 91.3 434.7 137 430.7C182.7 426.7 228.3 431.3 274 436.8C319.7 442.3 365.3 448.7 411.2 454.2C457 459.7 503 464.3 548.8 462.3C594.7 460.3 640.3 451.7 686 452.8C731.7 454 777.3 465 823 467.7C868.7 470.3 914.3 464.7 937.2 461.8L960 459L960 541L937.2 541C914.3 541 868.7 541 823 541C777.3 541 731.7 541 686 541C640.3 541 594.7 541 548.8 541C503 541 457 541 411.2 541C365.3 541 319.7 541 274 541C228.3 541 182.7 541 137 541C91.3 541 45.7 541 22.8 541L0 541Z" fill="#009aed"></path><path d="M0 489L22.8 489C45.7 489 91.3 489 137 488.2C182.7 487.3 228.3 485.7 274 483.7C319.7 481.7 365.3 479.3 411.2 477.8C457 476.3 503 475.7 548.8 478.5C594.7 481.3 640.3 487.7 686 486.2C731.7 484.7 777.3 475.3 823 473.5C868.7 471.7 914.3 477.3 937.2 480.2L960 483L960 541L937.2 541C914.3 541 868.7 541 823 541C777.3 541 731.7 541 686 541C640.3 541 594.7 541 548.8 541C503 541 457 541 411.2 541C365.3 541 319.7 541 274 541C228.3 541 182.7 541 137 541C91.3 541 45.7 541 22.8 541L0 541Z" fill="#00a8cd"></path></svg>