<svg id="visual" viewBox="0 0 960 540" width="960" height="540" xmlns="http://www.w3.org/2000/svg" xmlns:xlink="http://www.w3.org/1999/xlink" version="1.1"><rect x="0" y="0" width="960" height="540" fill="#001220"></rect><path d="M0 381L22.8 370.8C45.7 360.7 91.3 340.3 137 329.3C182.7 318.3 228.3 316.7 274 315C319.7 313.3 365.3 311.7 411.2 322.5C457 333.3 503 356.7 548.8 363.5C594.7 370.3 640.3 360.7 686 352.2C731.7 343.7 777.3 336.3 823 333.8C868.7 331.3 914.3 333.7 937.2 334.8L960 336L960 541L937.2 541C914.3 541 868.7 541 823 541C777.3 541 731.7 541 686 541C640.3 541 594.7 541 548.8 541C503 541 457 541 411.2 541C365.3 541 319.7 541 274 541C228.3 541 182.7 541 137 541C91.3 541 45.7 541 22.8 541L0 541Z" fill="#6600ff"></path><path d="M0 369L22.8 367.2C45.7 365.3 91.3 361.7 137 370.8C182.7 380 228.3 402 274 400.3C319.7 398.7 365.3 373.3 411.2 359.3C457 345.3 503 342.7 548.8 347.3C594.7 352 640.3 364 686 374.5C731.7 385 777.3 394 823 401.5C868.7 409 914.3 415 937.2 418L960 421L960 541L937.2 541C914.3 541 868.7 541 823 541C777.3 541 731.7 541 686 541C640.3 541 594.7 541 548.8 541C503 541 457 541 411.2 541C365.3 541 319.7 541 274 541C228.3 541 182.7 541 137 541C91.3 541 45.7 541 22.8 541L0 541Z" fill="#175cff"></path><path d="M0 406L22.8 408.8C45.7 411.7 91.3 417.3 137 420C182.7 422.7 228.3 422.3 274 427C319.7 431.7 365.3 441.3 411.2 436.5C457 431.7 503 412.3 548.8 407.2C594.7 402 640.3 411 686 411.3C731.7 411.7 777.3 403.3 823 400.2C868.7 397 914.3 399 937.2 400L960 401L960 541L937.2 541C914.3 541 868.7 541 823 541C777.3 541 731.7 541 686 541C640.3 541 594.7 541 548.8 541C503 541 457 541 411.2 541C365.3 541 319.7 541 274 541C228.3 541 182.7 541 137 541C91.3 541 45.7 541 22.8 541L0 541Z" fill="#0082ff"></path><path d="M0 457L22.8 451.5C45.7 446 91.3 435 137 434.3C182.7 433.7 228.3 443.3 274 446.7C319.7 450 365.3 447 411.2 445.5C457 444 503 444 548.8 443C594.7 442 640.3 440 686 441.3C731.7 442.7 777.3 447.3 823 451.8C868.7 456.3 914.3 460.7 937.2 462.8L960 465L960 541L937.2 541C914.3 541 868.7 541 823 541C777.3 541 731.7 541 686 541C640.3 541 594.7 541 548.8 541C503 541 457 541 411.2 541C365.3 541 319.7 541 274 541C228.3 541 182.7 541 137 541C91.3 541 45.7 541 22.8 541L0 541Z" fill="#009aed"></path><path d="M0 483L22.8 480.3C45.7 477.7 91.3 472.3 137 474.2C182.7 476 228.3 485 274 490.8C319.7 496.7 365.3 499.3 411.2 500.2C457 501 503 500 548.8 494.2C594.7 488.3 640.3 477.7 686 475.5C731.7 473.3 777.3 479.7 823 481.2C868.7 482.7 914.3 479.3 937.2 477.7L960 476L960 541L937.2 541C914.3 541 868.7 541 823 541C777.3 541 731.7 541 686 541C640.3 541 594.7 541 548.8 541C503 541 457 541 411.2 541C365.3 541 319.7 541 274 541C228.3 541 182.7 541 137 541C91.3 541 45.7 541 22.8 541L0 541Z" fill="#00a8cd"></path></svg>