<svg id="visual" viewBox="0 0 960 540" width="960" height="540" xmlns="http://www.w3.org/2000/svg" xmlns:xlink="http://www.w3.org/1999/xlink" version="1.1"><rect x="0" y="0" width="960" height="540" fill="#001220"></rect><path d="M0 319L22.8 326.3C45.7 333.7 91.3 348.3 137 346.7C182.7 345 228.3 327 274 319.7C319.7 312.3 365.3 315.7 411.2 317.2C457 318.7 503 318.3 548.8 316.5C594.7 314.7 640.3 311.3 686 308.3C731.7 305.3 777.3 302.7 823 308.3C868.7 314 914.3 328 937.2 335L960 342L960 541L937.2 541C914.3 541 868.7 541 823 541C777.3 541 731.7 541 686 541C640.3 541 594.7 541 548.8 541C503 541 457 541 411.2 541C365.3 541 319.7 541 274 541C228.3 541 182.7 541 137 541C91.3 541 45.7 541 22.8 541L0 541Z" fill="#6600ff"></path><path d="M0 355L22.8 363.5C45.7 372 91.3 389 137 399.8C182.7 410.7 228.3 415.3 274 408.5C319.7 401.7 365.3 383.3 411.2 382.2C457 381 503 397 548.8 404.7C594.7 412.3 640.3 411.7 686 412.5C731.7 413.3 777.3 415.7 823 411.3C868.7 407 914.3 396 937.2 390.5L960 385L960 541L937.2 541C914.3 541 868.7 541 823 541C777.3 541 731.7 541 686 541C640.3 541 594.7 541 548.8 541C503 541 457 541 411.2 541C365.3 541 319.7 541 274 541C228.3 541 182.7 541 137 541C91.3 541 45.7 541 22.8 541L0 541Z" fill="#175cff"></path><path d="M0 440L22.8 440.5C45.7 441 91.3 442 137 435.2C182.7 428.3 228.3 413.7 274 414.7C319.7 415.7 365.3 432.3 411.2 437C457 441.7 503 434.3 548.8 429.7C594.7 425 640.3 423 686 416.5C731.7 410 777.3 399 823 400.2C868.7 401.3 914.3 414.7 937.2 421.3L960 428L960 541L937.2 541C914.3 541 868.7 541 823 541C777.3 541 731.7 541 686 541C640.3 541 594.7 541 548.8 541C503 541 457 541 411.2 541C365.3 541 319.7 541 274 541C228.3 541 182.7 541 137 541C91.3 541 45.7 541 22.8 541L0 541Z" fill="#0082ff"></path><path d="M0 456L22.8 457.3C45.7 458.7 91.3 461.3 137 461.5C182.7 461.7 228.3 459.3 274 455.2C319.7 451 365.3 445 411.2 444.2C457 443.3 503 447.7 548.8 451.8C594.7 456 640.3 460 686 457.2C731.7 454.3 777.3 444.7 823 445.8C868.7 447 914.3 459 937.2 465L960 471L960 541L937.2 541C914.3 541 868.7 541 823 541C777.3 541 731.7 541 686 541C640.3 541 594.7 541 548.8 541C503 541 457 541 411.2 541C365.3 541 319.7 541 274 541C228.3 541 182.7 541 137 541C91.3 541 45.7 541 22.8 541L0 541Z" fill="#009aed"></path><path d="M0 464L22.8 470C45.7 476 91.3 488 137 488.5C182.7 489 228.3 478 274 472.5C319.7 467 365.3 467 411.2 469.2C457 471.3 503 475.7 548.8 478.2C594.7 480.7 640.3 481.3 686 481C731.7 480.7 777.3 479.3 823 480C868.7 480.7 914.3 483.3 937.2 484.7L960 486L960 541L937.2 541C914.3 541 868.7 541 823 541C777.3 541 731.7 541 686 541C640.3 541 594.7 541 548.8 541C503 541 457 541 411.2 541C365.3 541 319.7 541 274 541C228.3 541 182.7 541 137 541C91.3 541 45.7 541 22.8 541L0 541Z" fill="#00a8cd"></path></svg>